P1
70 57

# Copyright (c) 2020 Chinmayee Bandal

0000000000000000000000000000000000000000000000000000000000000000000000
0000000000000000000000000000000000000000000000000000000000000000000000
0000000000000000000000000000000000000000000000000000000000000000000000
0000000000000000000000000000000000000000000000000000000000000000000000
0000000000000000000000000000000000000000000000000000000000000000000000
0000000000000000000000000000000000000000000000000000000000000000000000
0000000000000000000000000000000000000000000000000000000000000000000000
0000000000000000000000000000000000000000000000000000000000000000000000
0000000000000000000000000010100001010000010100000000000000000000000000
0000000000000000000000000001000000100000001000000000000000000000000000
0000000000000000000000000010100001010000010100000000000000000000000000
0000000000000000000000000000000000000000000000000000000000000000000000
0000000000000000000010100000000000000000000000001010000000000000000000
0000000000000000000001000000000111111111000000000100000000000000000000
0000000000000000000010100000001111111111100000001010000000000000000000
0000000000000000000000000000011111111111110000000000000000000000000000
0000000000000000000000000000110001111100011000000000000000000000000000
0000000000000000010100000000100000111100001000000010100000000000000000
0000000000000000001000000001100000000000001100000001000000000000000000
0000000000000000010100000001111111111111111100000010100000000000000000
0000000000000000000000000001001110001111100100000000000000000000000000
0000000000000000000000000001000000000000000100000000000000000000000000
0000000000000000000000000001000000101000000100000000000000000000000000
0000000000000000010100000001000000111000000100000010100000000000000000
0000000000000000001000000001100000000000001100000001000000000000000000
0000000000000000010100000001100111111111001100000010100000000000000000
0000000000000000000000000001100111111111001100000000000000000000000000
0000000000000000000000000001100110000011001100000000000000000000000000
0000000000000000000000000001111110000011111100000000000000000000000000
0000000000000000010100000000111111111111111000000010100000000000000000
0000000000000000001000000000011111111111110000000001000000000000000000
0000000000000000010100000000001111111111100000000010100000000000000000
0000000000000000000000000000000111111111000000000000000000000000000000
0000000000000000000000000000000011111110000000000000000000000000000000
0000000000000000000000000000000000000000000000000000000000000000000000
0000000000000000000000000000000000000000000000000000000000000000000000
0000000000000000000000000000000000000000000000000000000000000000000000
0000000000000000000000000000000000000000000000000000000000000000000000
0000000000000000000000000000000000000000000000000000000000000000000000
0000000000000000000000000000000000000000000000000000000000000000000000
0000000000000000001111001111011110000011110111101111000000000000000000
0000000000000000001000001000010000000000010000101001000000000000000000
0000000000000000001000001110011100000011110111101001000000000000000000
0000000000000000001000000010010000000010000100001001000000000000000000
0000000000000000001111011110011110000011110111101111000000000000000000
0000000000000000000000000000000000000000000000000000000000000000000000
0000000000000000000000000000000000000000000000000000000000000000000000
0000000000000000000000000000000000000000000000000000000000000000000000
0000000000000000000000000000000000000000000000000000000000000000000000
0000000000000000000000000000000000000000000000000000000000000000000000
0000000000000000000000000000000000000000000000000000000000000000000000
0000000000000000000000000000000000000000000000000000000000000000000000
0000000000000000000000000000000000000000000000000000000000000000000000
0000000000000000000000000000000000000000000000000000000000000000000000
0000000000000000000000000000000000000000000000000000000000000000000000
0000000000000000000000000000000000000000000000000000000000000000000000
0000000000000000000000000000000000000000000000000000000000000000000000
