P1
70 57

# Copyright (c) 2020 Chinmayee Bandal

0000000000000000000000000000000000000000000000000000000000000000000000
0000000000000000000000000000000000000000000000000000000000000000000000
0000000000000000000000000000000000000000000000000000000000000000000000
0000000000000000000000000000000000000000000000000000000000000000000000
0000000000000000000000000000000000000000000000000000000000000000000000
0000000000000000000000000000000000000000000000000000000000000000000000
0000000000000000000000000000000000000000000000000000000000000000000000
0000000000000000000000000000000000000000000000000000000000000000000000
0000000000000000000000000000000000000000000000000000000000000000000000
0000000000000000000000000000000000000000000000000000000000000000000000
0000000000000000000000000000000000000000000000000000000000000000000000
0000000000000000000000000000000000000000000000000000000000000000000000
0000000000000000001100000010001000111000000110000000000000000000000000
0000000000000000001100000010001000111100001010000000000000000000000000
0000000000000000001100000010001000110110010010000000000000000000000000
0000000000000000001100000010001000110011110010000000000000000000000000
0000000000000000001100000010001000110001100010000000000000000000000000
0000000000000000000110000100001000110000000010000000000000000000000000
0000000000000000000011001000001000110000000010000000000000000000000000
0000000000000000000001110000001000110000000010000000000000000000000000
0000000000000000000000000000000000000000000000000000000000000000000000
0000000000000000000000000000000000000000000000000000000000000000000000
0000000000000000000000000000000000000000000000000000000000000000000000
0000000000000000000000000000000000000000000000000000000000000000000000
0000000000000000000000000000000000000000000000000000000000000000000000
0000000000000000000000000000001000010011110000000000000000000000000000
0000000000000000000000000000001000010011000000000000000000000000000000
0000000000000000000000000000000100010011110000000000000000000000000000
0000000000000000000000000000000011100000010000000000000000000000000000
0000000000000000000000000000000001000011110000000000000000000000000000
0000000000000000000000000000000000000000000000000000000000000000000000
0000000000000000000000000000000000000000000000000000110110000000000000
0000000000000000000000000000000000000000000000000001001001000000000000
0000000000000000000000000000000000000000000000000000100010000000000000
0000000000000000000000000000000000000000000000000000010100000000000000
0000000000000000000000000000000000000000000000000000001000000000000000
0000000000000000011100000000000000111111000000000000000000000000000000
0000000000000000001110000000000000110000000000000000000000000000000000
0000000001111111111011000000000000110000000101000011100011100111000000
0000000000100000000001110000000000111110001010100100100010000100000000
0000000000100000000001110000000000110000001010100100100010000111000000
0000000001111111111011000000000000111111001010100100100010000001000000
0000000000000000001110000000000000111111001010100011110011100111000000
0000000000000000011100000000000000000000000000000000000000000000000000
0000000000000000000000000000000000000000000000000000000000000000000000
0000000000000000000000000000000000000000000000000000000000000000000000
0000000000000000000000000000000000000000000000000000000000000000000000
0000000000000000000000000000000000000000000000000000000000000000000000
0000000000000000000000000000000000000000000000000000000000000000000000
0000000000000000000000000000000000000000000000000000000000000000000000
0000000000000000000000000000000000000000000000000000000000000000000000
0000000000000000000000000000000000000000000000000000000000000000000000
0000000000000000000000000000000000000000000000000000000000000000000000
0000000000000000000000000000000000000000000000000000000000000000000000
0000000000000000000000000000000000000000000000000000000000000000000000
0000000000000000000000000000000000000000000000000000000000000000000000
0000000000000000000000000000000000000000000000000000000000000000000000
