P1
70 57

# Copyright (c) 2020 Chinmayee Bandal

0000000000000000000000000000000000000000000000000000000000000000000000
0000000000000000000000000000000000000000000000000000000000000000000000
0000000000000000000000000000000000000000000000000000000000000000000000
0000000000000000000000000000000000000000000000000000000000000000000000
0000000000000000000000000000000000000000000000000000000000000000000000
0000000000000000000000000000000000000000000000000000000000000000000000
0000000000000000000000000000000000000000000000000000000000000000000000
0000000000000000000000000000000000000000000000000000000000000000000000
0000000000000000000000000000000000000000000000000000000000000000000000
0000000000000000000000000000000000000000000000000000000000000000000000
0000000000000000000000000000000000000000000000000000000000000000000000
0000000000000000000000000000000000000000000000000000000000000000000000
0000000000000000000000000000000000000000000000000000000000000000000000
0000000000000000000000000000000000000000000000000000000000000000000000
0000000000000000000000000000000000000000000000000000000000000000000000
0000000000000000000000000000000000000000000000000000000000000000000000
0000000000000000000000000000000000000000000000000000000000000000000000
0000000000000000000000000000000000000000000000000000000000000000000000
0000000000000000000000000000000000000000000000000000000000000000000000
0000000000000000001111111111000000000011111100000000000000000000000000
0000000000000000000011111100000000000000110000000000000000000000000000
0000000000000000000011111100000000000000110000000000000000000000000000
0000000000000000000011111100000000000000110000000000000000000000000000
0000000000000000000011111100000000000000110000000000000000000000000000
0000000000000000000011111100000000000000110000000000000000000000000000
0000000000000000000011111100001111111111111111111110000000000000000000
0000000000000000000011111100000111111111111111111111000000000000000000
0000000000000000000001111110000111111000110000011111000000000000000000
0000000000000000000001111111000111111001110000011111000000000000000000
0000000000000000000000111111100111111011100000011110000000000000000000
0000000000000000000000011111111111111111111111111100000000000000000000
0000000000000000000000000111111111111111111111111110000000000000000000
0000000000000000000000000000000111111000000000000011000000000000000000
0000000000000000000000000000000111111000000000000011000000000000000000
0000000000000000000000000000000111111000000000000011000000000000000000
0000000000000000000000000000000111111111111111111111000000000000000000
0000000000000000000000000000001111111111111111111110000000000000000000
0000000000000000000000000000000000000000000000000000000000000000000000
0000000000000000000000000000000000000000000000000000000000000000000000
0000000000000000000000000000000000000000000000000000000000000000000000
0000000000000000000000000000000000000000000000000000000000000000000000
0000000000000000000000000000000000000000000000000000000000000000000000
0000000000000000000000000000000000000000000000000000000000000000000000
0000000000000000000000000000000000000000000000000000000000000000000000
0000000000000000000000000000000000000000000000000000000000000000000000
0000000000000000000000000000000000000000000000000000000000000000000000
0000000000000000000000000000000000000000000000000000000000000000000000
0000000000000000000000000000000000000000000000000000000000000000000000
0000000000000000000000000000000000000000000000000000000000000000000000
0000000000000000000000000000000000000000000000000000000000000000000000
0000000000000000000000000000000000000000000000000000000000000000000000
0000000000000000000000000000000000000000000000000000000000000000000000
0000000000000000000000000000000000000000000000000000000000000000000000
0000000000000000000000000000000000000000000000000000000000000000000000
0000000000000000000000000000000000000000000000000000000000000000000000
0000000000000000000000000000000000000000000000000000000000000000000000
0000000000000000000000000000000000000000000000000000000000000000000000
