P1
70 57

# Copyright (c) 2020 Chinmayee Bandal

0000000000000000000000000000000000000000000000000000000000000000000000
0000000000000000000000000000000000000000000000000000000000000000000000
0000000000000000000000000000000000000000000000000000000000000000000000
0000000000000000000000000000000000000000000000000000000000000000000000
0000000000000000000000000000000000000000000000000000000000000000000000
0000000000000000000000000000000000000000000000000000000000000000000000
0000000000000000000000000000000000000000000000000000000000000000000000
0000000000000000000000000000000000000000000000000000000000000000000000
0000000000000000000000000000000000000000000000000000000000000000000000
0000000000000000000000000000000000000000000000000000000000000000000000
0000000000000000000000000000000000000000000000000000000000000000000000
0000000000000000000000000000000000000000000000000000000000000000000000
0000000011000000001000000000000000000000000000000000000000000000000000
0000000011000000001000000000000000000000000000000000000000000000000000
0000000011000000001000000111000011000000100000000000000000000000000000
0000000011000000011000011000100011000000100000000000000000000000000000
0000000011100000011000110000010011000000100000000000001100000110000000
0000000001111000111000110000010011000000100000000000011110001111000000
0000000000111101111000110000010011000000100000000000011011011011000000
0000000000011111110000110000010011000000100000000000011001110011000000
0000000000001111100000110000010011000000100000000000011100100110000000
0000000000000111000000110000010011000000100000000000001110001100000000
0000000000000011000000110000010011000000100000000000000111011000000000
0000000000000011000000011000100001100001000000000000000011110000000000
0000000000000011000000000111000000111110000000000000000001100000000000
0000000000000011000000000000000000000000000000000000000000000000000000
0000000000000000000000000000000000000000000000000000000000000000000000
0000000000000000000000000000000000000000000000000000000000000000000000
0000000000000000000000000000000000000000000000000000000000000000000000
0000000000000000000000000000000000000000000000000000000000000000000000
0000000000000000000000000000000000000000000000000000000000000000000000
0000000000000000000000000000000000000000000000000000000000000000000000
0000000000000000000000000000000000000000000000000000000000000000000000
0000000000000000000000000000000000000000000000000000000000000000000000
0000000000000011110000111100000000000000000000000000000000000000000000
0000000000000011010000100100000000000000000000000000000000000000000000
0000000000000011010000100100000000000100000010000000000000000000000000
0000000000000011011001100100000000000100000010000000000000000000000000
0000000000000011001101000100000000001111100111110000000000000000000000
0000000000000011000110000100000000000100000010000111110010000000000000
0000000000000011000110000100011110000100000010000100010010011100000000
0000000000000011000000000100100010000100000010000111110010100100000000
0000000000000011000000000100100010000100000010000100000011000000000000
0000000000000011000000000100100010000100000010000100000010000000000000
0000000000000011000000001100100010100110100010010100010010000000000000
0000000000000011000000001100011111100111100011110111110010000000000000
0000000000000000000000000000000000000000000000000000000000000000000000
0000000000000000000000000000000000000000000000000000000000000000000000
0000000000000000000000000000000000000000000000000000000000000000000000
0000000000000000000000000000000000000000000000000000000000000000000000
0000000000000000000000000000000000000000000000000000000000000000000000
0000000000000000000000000000000000000000000000000000000000000000000000
0000000000000000000000000000000000000000000000000000000000000000000000
0000000000000000000000000000000000000000000000000000000000000000000000
0000000000000000000000000000000000000000000000000000000000000000000000
0000000000000000000000000000000000000000000000000000000000000000000000
0000000000000000000000000000000000000000000000000000000000000000000000
